:SAMPLES-PER-SECOND 30
:FULLY-SPECIFIED
:DEGREES
116
root  34.87644346 36.50158559 -14.91378123 8.540774345 -8.047153473 4.519212246
lowerback  -7.236670971 -1.426482439 -1.156621218
upperback  -3.916120052 -1.415140033 -3.421030045
thorax  -0.05124116316 -0.5500654578 -2.978300095
lowerneck  0.8625760078 -19.4605999 -14.30519962
upperneck  12.67700005 -27.75889778 16.10219955
head  8.067919731 -13.09689999 4.57198
lclavicle  0 -4.497500157e-015 -2.743230041e-014
lhumerus  -46.98400116 25.86899948 66.46070099
lradius  -0.0456818901 -6.507048965e-006 30.79330063
lwrist  4.824992743e-007 -3.790274832e-007 -26.49209976
lhand  -4.412612917e-031 -36.84749985 -10.31579971
lfingers  90 7.125020027 -90
lthumb  94.71563725 -25.16011269 100.9804015
rclavicle  0 -4.497500157e-015 -2.743230041e-014
rhumerus  -41.61220169 -30.34460068 -13.7332983
rradius  -5.16745672e-007 2.214343908e-008 89.61940002
rwrist  -7.499573258e-005 0.03438235447 -175.197998
rhand  -0 4.399310112 -5.553919792
rfingers  -90 -7.125020027 -90
rthumb  -84.0617661 -10.24101557 -59.67051149
rfemur  -13.46538353 16.57316017 11.59001637
rtibia  -1.684255242 -2.219105005 21.80180359
rfoot  0.1619209945 -23.60877419 -34.11577606
rtoes  4.159773165 19.57997482 -102.2446749
lfemur  -8.289092064 -17.11715508 -21.83342171
ltibia  2.768414497 -2.446032524 14.93829823
lfoot  1.259543657 -21.01003838 39.364151
ltoes  -8.505497192 -18.16868879 -115.6227148
117
root  34.876882 36.50151951 -14.91356647 8.543430328 -8.108792305 4.520862579
lowerback  -7.235981941 -1.426439524 -1.184298754
upperback  -3.914112091 -1.419970036 -3.411760092
thorax  -0.0501723513 -0.5519321561 -2.953389883
lowerneck  0.9127290249 -19.51099968 -14.35639954
upperneck  12.66390038 -27.8390007 16.14870071
head  8.082799911 -13.13700008 4.581089973
lclavicle  0 -4.497500157e-015 -2.743230041e-014
lhumerus  -46.99919891 25.86630058 66.46649933
lradius  -0.04583484679 -6.507048965e-006 30.81979942
lwrist  4.824992743e-007 -3.790274832e-007 -26.49860001
lhand  -4.40773468e-031 -36.76279831 -10.4211998
lfingers  90 7.125020027 -90
lthumb  94.69857074 -25.26647548 100.899428
rclavicle  0 -4.497500157e-015 -2.743230041e-014
rhumerus  -40.96220016 -30.43599892 -13.52030373
rradius  -5.16745672e-007 2.214343908e-008 88.70539856
rwrist  -7.499573258e-005 0.03438235447 -175.2910004
rhand  -1.770509403e-031 4.284060001 -5.584770203
rfingers  -90 -7.125020027 -90
rthumb  -84.10736932 -10.20873907 -59.78628384
rfemur  -13.48764133 16.6197834 11.57673168
rtibia  -1.683415055 -2.22411561 21.81453705
rfoot  0.1531246454 -23.62266541 -34.11370087
rtoes  4.142246312 19.58355069 -102.1923796
lfemur  -8.302899361 -17.10358047 -21.84078979
ltibia  2.753441334 -2.483617544 14.9569006
lfoot  1.233921409 -20.93828773 39.33485794
ltoes  -8.499914004 -18.17123199 -115.6048106
118
root  34.87671379 36.50063042 -14.91331416 8.527759552 -8.149848938 4.535535812
lowerback  -7.234577179 -1.426489234 -1.165446758
upperback  -3.913677454 -1.418755412 -3.422729969
thorax  -0.04753307626 -0.5535050035 -2.975219965
lowerneck  0.9512630105 -19.54969978 -14.35809994
upperneck  12.63479996 -27.89989853 16.19379997
head  8.084367752 -13.16588783 4.587365627
lclavicle  0 -4.497500157e-015 -2.743230041e-014
lhumerus  -46.96969986 25.79610062 66.4890976
lradius  -0.04598198459 -6.507048965e-006 30.83699799
lwrist  4.824992743e-007 -3.790274832e-007 -26.46890068
lhand  -0 -36.7322998 -10.56270027
lfingers  90 7.125020027 -90
lthumb  94.71398143 -25.40646542 100.8795404
rclavicle  0 -4.497500157e-015 -2.743230041e-014
rhumerus  -40.4530983 -30.59460258 -13.25239849
rradius  -5.16745672e-007 2.214343908e-008 87.7664032
rwrist  -7.499573258e-005 0.03438235447 -175.3070068
rhand  -0 4.401539803 -5.672420025
rfingers  -90 -7.125020027 -90
rthumb  -84.12197539 -10.13885928 -59.67910735
rfemur  -13.47659779 16.60684776 11.55155659
rtibia  -1.680592895 -2.26230216 21.81011391
rfoot  0.146929279 -23.69944382 -34.09453583
rtoes  4.104270595 19.5912442 -102.079102
lfemur  -8.281866074 -17.10314369 -21.87167931
ltibia  2.762698889 -2.500888586 14.94663429
lfoot  1.243874669 -20.92927551 39.37944412
ltoes  -8.493810947 -18.17400961 -115.5852421
119
root  34.87705922 36.50048924 -14.91314445 8.526054382 -8.203804016 4.52717638
lowerback  -7.232907772 -1.426707268 -1.170769334
upperback  -3.913401842 -1.415019631 -3.43076992
thorax  -0.0452513583 -0.5550932884 -2.979830027
lowerneck  0.9889069796 -19.59609985 -14.33810043
upperneck  12.58419991 -27.96310043 16.19420052
head  8.067919731 -13.19989967 4.579140186
lclavicle  0 -4.497500157e-015 -2.743230041e-014
lhumerus  -46.92699814 25.53779984 66.65809631
lradius  -0.04612318426 -6.507048965e-006 30.95420074
lwrist  4.824992743e-007 -3.790274832e-007 -26.18260002
lhand  -4.406333259e-031 -36.73839951 -10.60000038
lfingers  90 7.125020027 -90
lthumb  94.72465701 -25.44289981 100.8894706
rclavicle  0 -4.497500157e-015 -2.743230041e-014
rhumerus  -39.82220078 -30.74469948 -13.10929871
rradius  -5.16745672e-007 2.214343908e-008 86.86119843
rwrist  -7.499573258e-005 0.03438235447 -174.602005
rhand  -1.770769329e-031 4.394899845 -5.62334013
rfingers  -90 -7.125020027 -90
rthumb  -84.09855106 -10.18086191 -59.68124097
rfemur  -13.46930885 16.64020729 11.5462265
rtibia  -1.668237329 -2.275772333 21.77873421
rfoot  0.1765277088 -23.72072029 -34.05025101
rtoes  4.107004029 19.59069291 -102.0872541
lfemur  -8.325147629 -17.11509323 -21.84519958
ltibia  2.724421978 -2.517831564 15.01898003
lfoot  1.256301999 -20.91659546 39.41450119
ltoes  -8.509197143 -18.16700229 -115.6345812
120
root  34.87756684 36.49998462 -14.91304232 8.515479088 -8.25565052 4.529911995
lowerback  -7.231425762 -1.427169561 -1.152831435
upperback  -3.911870003 -1.411769986 -3.443340063
thorax  -0.04305751994 -0.5563464165 -3.002870083
lowerneck  1.025159955 -19.63509941 -14.35620022
upperneck  12.54679966 -28.02420044 16.24169922
head  8.069459915 -13.23009968 4.58795023
lclavicle  0 -4.497500157e-015 -2.743230041e-014
lhumerus  -46.89709854 25.52300072 66.64630127
lradius  -0.04625832662 -6.507048965e-006 30.94120026
lwrist  4.824992743e-007 -3.790274832e-007 -26.14679909
lhand  -0 -36.74430084 -10.53619957
lfingers  90 7.125020027 -90
lthumb  94.71405516 -25.38007822 100.8900154
rclavicle  0 -4.497500157e-015 -2.743230041e-014
rhumerus  -39.19879913 -30.94070244 -12.93290043
rradius  -5.16745672e-007 2.214343908e-008 85.94309998
rwrist  -7.499573258e-005 0.03438235447 -174.3990021
rhand  -1.77092225e-031 4.458809853 -5.488679886
rfingers  -90 -7.125020027 -90
rthumb  -84.01281696 -10.30018247 -59.6062946
rfemur  -13.45945454 16.65195656 11.5384531
rtibia  -1.662751913 -2.280832291 21.76595116
rfoot  0.1943780482 -23.72637939 -34.0122261
rtoes  4.108069075 19.59047801 -102.0904305
lfemur  -8.330370903 -17.1219635 -21.8552494
ltibia  2.711196184 -2.552408457 15.05080032
lfoot  1.252921224 -20.86795807 39.42256165
ltoes  -8.502024059 -18.17027108 -115.6115769
121
root  34.87993976 36.49970528 -14.91305133 8.509705544 -8.309963226 4.543613434
lowerback  -7.230261326 -1.427951932 -1.149780989
upperback  -3.907670021 -1.409728289 -3.445960045
thorax  -0.04136511683 -0.5569137335 -3.006839991
lowerneck  1.085579991 -19.67819977 -14.3657999
upperneck  12.47329998 -28.08959961 16.29640007
head  8.055620193 -13.26500034 4.600609779
lclavicle  0 -4.497500157e-015 -2.743230041e-014
lhumerus  -46.86349869 25.60759926 66.5483017
lradius  -0.04638729617 -6.507048965e-006 30.87320137
lwrist  4.824992743e-007 -3.790274832e-007 -26.29039955
lhand  -4.411649449e-031 -36.8307991 -10.50790024
lfingers  90 7.125020027 -90
lthumb  94.74837634 -25.3493356 100.979858
rclavicle  0 -4.497500157e-015 -2.743230041e-014
rhumerus  -38.59970093 -31.09809875 -12.72680092
rradius  -5.16745672e-007 2.214343908e-008 84.97660065
rwrist  -7.499573258e-005 0.03438235447 -174.2400055
rhand  -1.771991582e-031 4.882160187 -5.443260193
rfingers  -90 -7.125020027 -90
rthumb  -83.87811176 -10.35982445 -59.18690354
rfemur  -13.48303223 16.67110062 11.51027203
rtibia  -1.666270256 -2.306022644 21.78926849
rfoot  0.1817460507 -23.77389526 -33.99151993
rtoes  4.097596414 19.59258864 -102.059198
lfemur  -8.289250374 -17.06664658 -21.89675903
ltibia  2.739468575 -2.535555363 14.99708366
lfoot  1.277911782 -20.89415741 39.48794937
ltoes  -8.498161097 -18.17203002 -115.5991899
122
root  34.88222858 36.50004169 -14.91318951 8.516802788 -8.366751671 4.551153183
lowerback  -7.218160152 -1.429129958 -1.133799911
upperback  -3.902250051 -1.40921998 -3.453249931
thorax  -0.0405877009 -0.5564447045 -3.023250103
lowerneck  1.155279994 -19.70809937 -14.38129997
upperneck  12.38980007 -28.13839722 16.37050056
head  8.033833504 -13.29190731 4.619250298
lclavicle  0 -4.497500157e-015 -2.743230041e-014
lhumerus  -46.83330154 25.54710007 66.56800079
lradius  -0.04650996253 -6.507048965e-006 30.88269806
lwrist  4.824992743e-007 -3.790274832e-007 -26.23460007
lhand  -0 -36.84529877 -10.55770016
lfingers  90 7.125020027 -90
lthumb  94.76564136 -25.3976495 100.9998888
rclavicle  0 -4.497500157e-015 -2.743230041e-014
rhumerus  -37.99640274 -31.28180313 -12.57519817
rradius  -5.16745672e-007 2.214343908e-008 84.01999664
rwrist  -7.499573258e-005 0.03438235447 -173.8670044
rhand  -1.771433873e-031 4.666210175 -5.528580189
rfingers  -90 -7.125020027 -90
rthumb  -83.97920484 -10.27595217 -59.4066407
rfemur  -13.50483418 16.70313454 11.48681641
rtibia  -1.671512723 -2.306475639 21.79395485
rfoot  0.1889569908 -23.75993347 -33.96533585
rtoes  4.088435913 19.59443019 -102.0318813
lfemur  -8.297659874 -17.06025314 -21.90893936
ltibia  2.737029076 -2.551043987 14.9944315
lfoot  1.281322598 -20.86366653 39.52799606
ltoes  -8.502608511 -18.17000487 -115.6134511
123
root  34.88407586 36.50033005 -14.91346585 8.521507263 -8.416162491 4.541662693
lowerback  -7.206069946 -1.431630015 -1.13607049
upperback  -3.896660089 -1.412619948 -3.466010094
thorax  -0.04195990041 -0.5533339977 -3.035229921
lowerneck  1.179739952 -19.73530006 -14.36590004
upperneck  12.34710026 -28.17749977 16.39369965
head  8.027850151 -13.31190014 4.625450134
lclavicle  0 -4.497500157e-015 -2.743230041e-014
lhumerus  -46.82139969 25.52599907 66.584198
lradius  -0.04662622139 -6.507048965e-006 30.93289948
lwrist  4.824992743e-007 -3.790274832e-007 -26.19999886
lhand  -0 -36.83779907 -10.6086998
lfingers  90 7.125020027 -90
lthumb  94.77290516 -25.4479213 100.9965
rclavicle  0 -4.497500157e-015 -2.743230041e-014
rhumerus  -37.36920166 -31.50139809 -12.42669868
rradius  -5.16745672e-007 2.214343908e-008 83.06040192
rwrist  -7.499573258e-005 0.03438235447 -173.6170044
rhand  -1.771636887e-031 4.745969772 -5.534170151
rfingers  -90 -7.125020027 -90
rthumb  -83.96118872 -10.27509742 -59.32896236
rfemur  -13.531744 16.68706703 11.48791695
rtibia  -1.675032139 -2.301996946 21.80247688
rfoot  0.2043640167 -23.75035286 -33.89819336
rtoes  4.083322932 19.59545618 -102.0166354
lfemur  -8.357004166 -17.04614067 -21.87891579
ltibia  2.684857845 -2.579754353 15.07121181
lfoot  1.263379097 -20.83926201 39.50492859
ltoes  -8.512215241 -18.16562591 -115.6442615
